<svg xmlns="http://www.w3.org/2000/svg" viewBox="0 0 400 280" fill="none">
  <!-- MacBook lid - Starlight color -->
  <rect x="10" y="10" width="380" height="260" rx="8" fill="#E8DFD5"/>
  <!-- Inner bezel -->
  <rect x="20" y="20" width="360" height="240" rx="4" fill="#D4C9BC"/>
  <!-- Apple logo -->
  <path d="M200 120c0-8 3-15 8-20-3-4-7-6-12-6-5 0-9 3-12 7-3-4-7-7-12-7-5 0-10 2-14 6 5 5 8 12 8 20 0 10-5 18-12 22 3 4 7 6 12 6 5 0 9-3 12-7 3 4 7 7 12 7 5 0 9-2 12-6-7-4-12-12-12-22z" fill="#C4B8A9" opacity="0.6"/>
  <!-- Subtle highlight -->
  <rect x="20" y="20" width="360" height="120" rx="4" fill="white" opacity="0.08"/>
</svg>
